# xmcd CD database file
#
# Track frame offsets:
#	150
#	17289
#	52699
#	76705
#
# Disc length: 1188 seconds
#
# Revision: 0
# Processed by: cddbd v1.4PL0 Copyright (c) Steve Scherf et al.
# Submitted via: CDex 1.40Beta9
#
DISCID=1504a204
DTITLE=Blue Gorrions - Blue Gorrions
DYEAR=2002
DGENRE=Blues
TTITLE0=Black Heart
TTITLE1=Blues en "A"
TTITLE2=One Way Out
TTITLE3=Mademoiselle Rock´n´roll
EXTD=YEAR: 2002 ID3G: 0
EXTT0=
EXTT1=
EXTT2=
EXTT3=
PLAYORDER=
